<svg xmlns="http://www.w3.org/2000/svg" width="1280" height="760" viewBox="0 0 1280 760"><rect width="1280" height="760" rx="28" fill="#080b13"/><text x="56" y="76" fill="#fff" font-family="Arial" font-size="30" font-weight="700">DSA Practice Lab</text><text x="56" y="108" fill="#8490a6" font-family="Arial" font-size="15">Patterns, approaches and complexity notes.</text><g font-family="Arial"><g transform="translate(56 150)"><rect width="340" height="540" rx="20" fill="#111625"/><text x="24" y="46" fill="#a995ff" font-size="14" font-weight="700">TOPICS</text><g fill="#d7dce6" font-size="16"><text x="24" y="98">Arrays &amp; Hashing</text><text x="24" y="146">Two Pointers</text><text x="24" y="194">Sliding Window</text><text x="24" y="242">Trees</text><text x="24" y="290">Graphs</text><text x="24" y="338">Dynamic Programming</text></g></g><g transform="translate(424 150)"><rect width="800" height="540" rx="20" fill="#111625"/><text x="26" y="46" fill="#fff" font-size="20" font-weight="700">Solved problems</text><g transform="translate(26 76)"><rect width="748" height="92" rx="14" fill="#181e2e"/><text x="20" y="34" fill="#fff" font-size="16" font-weight="700">Longest Substring Without Repeating Characters</text><text x="20" y="61" fill="#8490a6" font-size="13">Sliding window · O(n) time · O(k) space</text><circle cx="698" cy="46" r="12" fill="#39c98a"/></g><g transform="translate(26 184)"><rect width="748" height="92" rx="14" fill="#181e2e"/><text x="20" y="34" fill="#fff" font-size="16" font-weight="700">Binary Tree Level Order Traversal</text><text x="20" y="61" fill="#8490a6" font-size="13">Breadth-first search · O(n) time · O(w) space</text><circle cx="698" cy="46" r="12" fill="#39c98a"/></g><g transform="translate(26 292)"><rect width="748" height="92" rx="14" fill="#181e2e"/><text x="20" y="34" fill="#fff" font-size="16" font-weight="700">Coin Change</text><text x="20" y="61" fill="#8490a6" font-size="13">Dynamic programming · O(n·m) time</text><circle cx="698" cy="46" r="12" fill="#f0b94a"/></g></g></g></svg>
