<svg xmlns="http://www.w3.org/2000/svg" width="1280" height="760" viewBox="0 0 1280 760">
  <rect width="1280" height="760" rx="28" fill="#080b13"/>
  <rect x="28" y="28" width="224" height="704" rx="20" fill="#111625"/>
  <circle cx="64" cy="70" r="18" fill="#7c5cff"/><text x="94" y="77" fill="#fff" font-family="Arial" font-size="20" font-weight="700">JobFlow</text>
  <g fill="#8d98ae" font-family="Arial" font-size="15"><text x="56" y="140">Overview</text><text x="56" y="190">Applications</text><text x="56" y="240">Interviews</text><text x="56" y="290">Analytics</text></g>
  <text x="290" y="82" fill="#fff" font-family="Arial" font-size="30" font-weight="700">Application dashboard</text>
  <text x="290" y="112" fill="#8290aa" font-family="Arial" font-size="15">Track every opportunity from saved to offer.</text>
  <g font-family="Arial"><g transform="translate(290 148)"><rect width="210" height="116" rx="18" fill="#111625"/><text x="22" y="38" fill="#8995aa" font-size="14">Total applications</text><text x="22" y="84" fill="#fff" font-size="38" font-weight="700">42</text></g><g transform="translate(520 148)"><rect width="210" height="116" rx="18" fill="#111625"/><text x="22" y="38" fill="#8995aa" font-size="14">Interviews</text><text x="22" y="84" fill="#55d6ff" font-size="38" font-weight="700">8</text></g><g transform="translate(750 148)"><rect width="210" height="116" rx="18" fill="#111625"/><text x="22" y="38" fill="#8995aa" font-size="14">Offers</text><text x="22" y="84" fill="#9d86ff" font-size="38" font-weight="700">3</text></g></g>
  <rect x="290" y="292" width="942" height="408" rx="20" fill="#111625"/><text x="318" y="336" fill="#fff" font-family="Arial" font-size="20" font-weight="700">Recent applications</text>
  <g font-family="Arial" font-size="15"><g transform="translate(318 370)"><rect width="886" height="76" rx="14" fill="#171d2d"/><circle cx="38" cy="38" r="20" fill="#7c5cff"/><text x="75" y="32" fill="#fff" font-weight="700">Frontend Developer</text><text x="75" y="55" fill="#8793a9">Acme Labs · Remote</text><rect x="748" y="23" width="110" height="30" rx="15" fill="#213b43"/><text x="773" y="43" fill="#67e8c2">Interview</text></g><g transform="translate(318 462)"><rect width="886" height="76" rx="14" fill="#171d2d"/><circle cx="38" cy="38" r="20" fill="#55d6ff"/><text x="75" y="32" fill="#fff" font-weight="700">Software Engineer Intern</text><text x="75" y="55" fill="#8793a9">Northstar · Chandigarh</text><rect x="748" y="23" width="110" height="30" rx="15" fill="#2b2745"/><text x="778" y="43" fill="#b7a8ff">Applied</text></g></g>
</svg>
