<svg xmlns="http://www.w3.org/2000/svg" width="1280" height="760" viewBox="0 0 1280 760"><rect width="1280" height="760" rx="28" fill="#080b13"/><text x="56" y="76" fill="#fff" font-family="Arial" font-size="30" font-weight="700">Application pipeline</text><g font-family="Arial"><g transform="translate(56 120)"><rect width="270" height="580" rx="20" fill="#111625"/><text x="22" y="42" fill="#b6bfd0" font-size="16" font-weight="700">SAVED · 4</text><rect x="18" y="68" width="234" height="112" rx="14" fill="#191f30"/><text x="36" y="104" fill="#fff" font-size="16" font-weight="700">MERN Developer</text><text x="36" y="130" fill="#8793a9" font-size="14">Pixel Forge</text></g><g transform="translate(348 120)"><rect width="270" height="580" rx="20" fill="#111625"/><text x="22" y="42" fill="#b6bfd0" font-size="16" font-weight="700">APPLIED · 12</text><rect x="18" y="68" width="234" height="112" rx="14" fill="#191f30"/><text x="36" y="104" fill="#fff" font-size="16" font-weight="700">React Intern</text><text x="36" y="130" fill="#8793a9" font-size="14">Northstar Labs</text></g><g transform="translate(640 120)"><rect width="270" height="580" rx="20" fill="#111625"/><text x="22" y="42" fill="#55d6ff" font-size="16" font-weight="700">INTERVIEW · 3</text><rect x="18" y="68" width="234" height="112" rx="14" fill="#1a2533" stroke="#55d6ff" stroke-opacity=".25"/><text x="36" y="104" fill="#fff" font-size="16" font-weight="700">Frontend Engineer</text><text x="36" y="130" fill="#8793a9" font-size="14">Acme Labs</text></g><g transform="translate(932 120)"><rect width="270" height="580" rx="20" fill="#111625"/><text x="22" y="42" fill="#a995ff" font-size="16" font-weight="700">OFFER · 1</text><rect x="18" y="68" width="234" height="112" rx="14" fill="#211d37" stroke="#7c5cff" stroke-opacity=".35"/><text x="36" y="104" fill="#fff" font-size="16" font-weight="700">Web Developer</text><text x="36" y="130" fill="#8793a9" font-size="14">Orbit Systems</text></g></g></svg>
