<svg xmlns="http://www.w3.org/2000/svg" width="1280" height="760" viewBox="0 0 1280 760"><rect width="1280" height="760" rx="28" fill="#f7f8fc"/><rect width="238" height="760" fill="#172033"/><text x="42" y="68" fill="#fff" font-family="Arial" font-size="21" font-weight="700">Message Admin</text><g fill="#aab4c6" font-family="Arial" font-size="15"><text x="42" y="140">Inbox</text><text x="42" y="188">Archived</text><text x="42" y="236">Settings</text></g><text x="278" y="70" fill="#172033" font-family="Arial" font-size="28" font-weight="700">Contact messages</text><g font-family="Arial"><g transform="translate(278 110)"><rect width="208" height="108" rx="18" fill="#fff"/><text x="20" y="36" fill="#758198" font-size="13">Total messages</text><text x="20" y="78" fill="#172033" font-size="32" font-weight="700">128</text></g><g transform="translate(506 110)"><rect width="208" height="108" rx="18" fill="#fff"/><text x="20" y="36" fill="#758198" font-size="13">New</text><text x="20" y="78" fill="#7c5cff" font-size="32" font-weight="700">14</text></g><g transform="translate(734 110)"><rect width="208" height="108" rx="18" fill="#fff"/><text x="20" y="36" fill="#758198" font-size="13">Replied</text><text x="20" y="78" fill="#172033" font-size="32" font-weight="700">76</text></g></g><rect x="278" y="250" width="944" height="450" rx="20" fill="#fff"/><g font-family="Arial"><text x="310" y="292" fill="#172033" font-size="18" font-weight="700">Inbox</text><g transform="translate(306 326)"><rect width="888" height="92" rx="14" fill="#f7f8fc"/><text x="22" y="34" fill="#172033" font-size="15" font-weight="700">Aarav Sharma</text><text x="22" y="59" fill="#758198" font-size="13">Project enquiry · Looking for a MERN developer...</text><rect x="774" y="28" width="78" height="28" rx="14" fill="#ede9ff"/><text x="798" y="47" fill="#7c5cff" font-size="12">New</text></g><g transform="translate(306 434)"><rect width="888" height="92" rx="14" fill="#f7f8fc"/><text x="22" y="34" fill="#172033" font-size="15" font-weight="700">Nisha Kapoor</text><text x="22" y="59" fill="#758198" font-size="13">Internship opportunity · Your portfolio caught our eye...</text><rect x="754" y="28" width="98" height="28" rx="14" fill="#e8f7f1"/><text x="776" y="47" fill="#2a8f69" font-size="12">Replied</text></g></g></svg>
